<svg preserveAspectRatio="none" width="100%" height="100%" overflow="visible" style="display: block;" viewBox="0 0 30 30" fill="none" xmlns="http://www.w3.org/2000/svg">
<g id="clock">
<path id="Vector" opacity="0.4" d="M15 27.5C21.9036 27.5 27.5 21.9036 27.5 15C27.5 8.09644 21.9036 2.5 15 2.5C8.09644 2.5 2.5 8.09644 2.5 15C2.5 21.9036 8.09644 27.5 15 27.5Z" fill="var(--fill-0, #004A4A)"/>
<path id="Vector_2" d="M19.6375 19.9125C19.475 19.9125 19.3125 19.875 19.1625 19.775L15.2875 17.4625C14.325 16.8875 13.6125 15.625 13.6125 14.5125V9.3875C13.6125 8.875 14.0375 8.45 14.55 8.45C15.0625 8.45 15.4875 8.875 15.4875 9.3875V14.5125C15.4875 14.9625 15.8625 15.625 16.25 15.85L20.125 18.1625C20.575 18.425 20.7125 19 20.45 19.45C20.2625 19.75 19.95 19.9125 19.6375 19.9125Z" fill="var(--fill-0, #004A4A)"/>
<g id="Vector_3" opacity="0">
</g>
</g>
</svg>
